<?xml version="1.0" standalone="no"?>
<!DOCTYPE svg PUBLIC "-//W3C//DTD SVG 20010904//EN"
 "http://www.w3.org/TR/2001/REC-SVG-20010904/DTD/svg10.dtd">
<svg version="1.0" xmlns="http://www.w3.org/2000/svg"
 width="512.000000pt" height="512.000000pt" viewBox="0 0 512.000000 512.000000"
 preserveAspectRatio="xMidYMid meet">
<metadata>
Created by potrace 1.11, written by Peter Selinger 2001-2013
</metadata>
<g transform="translate(0.000000,512.000000) scale(0.100000,-0.100000)"
fill="#000000" stroke="none">
<path d="M3620 4900 c0 -3 -26 -5 -58 -5 -31 1 -63 -3 -69 -8 -9 -6 -13 -5
-13 4 0 9 -3 10 -8 4 -4 -5 -20 -11 -37 -12 -39 -3 -94 -10 -125 -17 -14 -2
-46 -7 -73 -11 -26 -3 -60 -10 -75 -16 -15 -6 -27 -9 -27 -8 0 1 -30 -4 -67
-11 -38 -8 -68 -18 -68 -24 0 -6 -5 -5 -11 1 -9 9 -18 9 -38 -1 -14 -7 -59
-21 -98 -31 -40 -11 -73 -23 -73 -28 0 -4 -4 -6 -9 -3 -5 3 -25 -1 -44 -9 -19
-8 -37 -11 -41 -8 -3 4 -6 1 -6 -6 0 -7 -3 -10 -8 -7 -4 2 -25 -4 -47 -14 -22
-11 -48 -19 -58 -20 -11 0 -15 -4 -11 -12 4 -6 3 -8 -3 -5 -19 12 -190 -62
-433 -188 -30 -16 -57 -31 -60 -35 -3 -3 -18 -12 -35 -20 -16 -8 -36 -21 -43
-27 -7 -7 -19 -13 -26 -13 -7 0 -21 -9 -31 -20 -10 -11 -20 -18 -23 -16 -2 3
-9 0 -16 -5 -28 -24 -102 -74 -109 -74 -4 0 -18 -9 -30 -21 -12 -11 -41 -33
-64 -49 -24 -15 -43 -32 -43 -36 0 -5 -5 -9 -11 -9 -6 0 -27 -16 -47 -35 -20
-19 -40 -35 -43 -35 -23 0 -338 -316 -445 -446 -107 -132 -158 -200 -237 -319
-37 -55 -70 -105 -74 -111 -5 -5 -17 -26 -27 -45 -10 -19 -35 -61 -54 -94 -38
-67 -127 -243 -162 -320 -12 -27 -31 -70 -43 -95 -55 -123 -180 -489 -202
-590 -2 -8 -15 -64 -28 -125 -14 -60 -29 -130 -32 -155 -4 -24 -8 -47 -10 -50
-2 -3 -6 -33 -10 -65 -3 -33 -8 -67 -10 -75 -25 -94 -25 -578 0 -690 3 -14 7
-38 10 -55 17 -114 88 -293 136 -344 11 -11 17 -21 14 -21 -5 0 70 -73 105
-102 9 -7 39 -25 67 -39 29 -15 49 -30 45 -33 -3 -4 1 -4 11 0 9 3 17 2 17 -4
0 -6 9 -8 20 -5 11 3 20 1 20 -5 0 -10 56 -28 73 -24 4 1 7 -3 7 -9 0 -5 5 -7
10 -4 6 3 16 3 23 -2 6 -4 17 -8 22 -9 6 -1 26 -5 45 -8 19 -3 58 -9 85 -12
28 -3 57 -8 65 -11 31 -12 386 -18 495 -8 109 9 176 16 207 21 18 3 44 7 58 9
14 2 25 4 25 5 0 1 16 3 35 5 51 5 95 14 185 36 44 11 96 22 115 25 19 3 38 8
42 11 5 2 17 6 28 9 43 9 56 13 98 28 23 8 42 13 42 10 0 -2 9 0 21 6 11 7 33
14 47 16 15 3 32 10 39 16 7 6 13 7 13 3 0 -4 6 -3 13 3 6 5 27 13 45 17 17 3
32 11 32 16 0 6 4 8 10 4 9 -5 15 -3 65 22 12 6 35 14 53 18 18 3 32 10 32 14
0 4 6 8 13 8 7 0 37 12 67 27 30 15 55 27 55 26 0 -1 37 15 83 37 45 22 80 43
77 46 -3 4 -2 5 2 2 3 -3 13 1 21 8 13 10 14 9 8 -1 -4 -7 12 1 36 16 24 16
63 40 88 53 25 13 49 28 55 32 23 18 128 77 137 77 5 0 6 4 3 10 -3 5 -2 10 2
10 12 0 96 55 167 110 32 25 65 50 74 55 8 6 25 19 37 30 12 11 44 38 71 60
161 132 410 400 561 605 307 417 520 886 633 1390 24 108 33 156 46 255 1 11
3 20 4 20 3 0 8 46 16 145 14 165 8 447 -11 570 -11 72 -36 172 -56 228 -10
28 -16 52 -13 52 3 0 -2 7 -10 16 -9 8 -16 22 -16 30 0 17 -41 97 -52 102 -5
2 -8 10 -8 18 0 8 -4 14 -10 14 -5 0 -10 6 -10 13 -1 6 -21 32 -45 57 -25 25
-45 48 -45 53 0 4 -5 7 -11 7 -6 0 -16 6 -24 13 -30 28 -56 47 -65 47 -6 0
-10 5 -10 11 0 5 -4 8 -9 5 -5 -3 -14 1 -21 9 -7 8 -18 15 -24 15 -7 0 -30 9
-51 20 -22 11 -58 25 -80 31 -22 5 -47 13 -55 16 -19 8 -39 13 -65 16 -12 2
-26 6 -32 10 -5 3 -25 7 -44 8 -19 2 -38 5 -43 7 -12 7 -75 13 -148 15 -32 1
-58 4 -58 7 0 3 -68 5 -150 5 -83 0 -150 -2 -150 -5z"/>
</g>
</svg>
